# xmcd
#
# Track frame offsets:
#	150
#	17613
#	32719
#	49555
#	71127
#	87577
#	102970
#	117592
#	133711
#	156356
#	175843
#	198373
#	216149
#	233450
#	247162
#
# Disc length: 3585 seconds
#
# Revision: 1
# Processed by: cddbd v1.5.1PL2 Copyright (c) Steve Scherf et al.
# Submitted via: dBpowerAMP V4.0
#
DISCID=d20dff0f
DTITLE=Various Artist - Classic Rock - Revelations 2006 AD
DYEAR=2006
DGENRE=Rock
TTITLE0=Crystal Pisto - Rock Star
TTITLE1=The Sheershock Revival - Give It Some Lovin'
TTITLE2=Gogol Bordello - Start Wearing Purple
TTITLE3=Edguy - Rocket Ride
TTITLE4=Green Dollar Colour - Let it Go
TTITLE5=The Answer - Only The Strong Survive
TTITLE6=Mother Superior - A-Hole
TTITLE7=The Lords of Altamont - Buried From The Knees Down
TTITLE8=Dragonforce - Throught The Fire And The Flames (Edit)
TTITLE9=Winterville - Breathe
TTITLE10=Eric Mcfadden - Wokin' for a dead man
TTITLE11=Benedictum - #4
TTITLE12=Hoggboy - Shoot Me
TTITLE13=Crank County Daredevils - High
TTITLE14=Trivium - Pull Harder On The Strings Of Your Martyr
EXTD=This is just a fixed version, the other submission I had from freedb has bad lableing the track was put alongside the Artist Name.
EXTT0=
EXTT1=
EXTT2=
EXTT3=
EXTT4=
EXTT5=
EXTT6=
EXTT7=
EXTT8=
EXTT9=
EXTT10=
EXTT11=
EXTT12=
EXTT13=
EXTT14=
PLAYORDER=
